<svg width="120" height="96" viewBox="0 0 120 96" fill="none" xmlns="http://www.w3.org/2000/svg">
<path fill-rule="evenodd" clip-rule="evenodd" d="M1.93277 37.2393C2.15331 27.336 -1.4082 15.7257 5.69436 8.23158C12.9649 0.560192 26.0997 -0.0939827 37.2177 0.00909042C45.8446 0.0890617 52.6237 6.19861 60.7877 8.74231C66.0093 10.3692 71.0932 11.8493 76.5911 12.2768C87.1855 13.1007 98.9532 7.23545 107.946 12.4097C116.482 17.3216 120.357 28.0408 119.974 37.2393C119.594 46.3885 112.644 54.2014 105.926 61.0057C100.008 67.0006 90.6544 68.5442 83.9124 73.7662C75.2338 80.4882 72.1354 96.8229 60.7877 95.9677C48.9573 95.076 50.1069 75.7606 39.7692 70.4393C29.2589 65.0291 13.084 74.5667 4.38704 66.9354C-3.59279 59.9334 1.70791 47.3361 1.93277 37.2393Z" fill="#111111"/>
<path d="M27.1999 24.298H32.5619L32.3799 25.124H27.9419L27.1019 28.54H31.0639L30.8679 29.366H26.9479L25.8279 34H24.8759L27.1999 24.298ZM37.3541 27.546C37.1861 27.5087 37.0321 27.4807 36.8921 27.462C36.7521 27.4433 36.6075 27.434 36.4581 27.434C35.8795 27.434 35.3661 27.546 34.9181 27.77C34.4701 27.994 34.0921 28.288 33.7841 28.652C33.4761 29.016 33.2381 29.4313 33.0701 29.898C32.9115 30.3647 32.8321 30.8407 32.8321 31.326C32.8321 31.7087 32.8695 32.0307 32.9441 32.292C33.0188 32.544 33.1215 32.7493 33.2521 32.908C33.3828 33.0573 33.5321 33.1693 33.7001 33.244C33.8775 33.3093 34.0641 33.342 34.2601 33.342C34.6428 33.342 35.0021 33.2533 35.3381 33.076C35.6741 32.8893 35.9915 32.628 36.2901 32.292C36.2901 32.04 36.3275 31.7507 36.4021 31.424C36.4768 31.0973 36.5468 30.8033 36.6121 30.542L37.3541 27.546ZM36.5421 34.084C36.4861 33.972 36.4348 33.846 36.3881 33.706C36.3508 33.5567 36.3228 33.4073 36.3041 33.258C35.9775 33.5753 35.6321 33.8087 35.2681 33.958C34.9135 34.1073 34.5448 34.182 34.1621 34.182C33.8635 34.182 33.5788 34.1307 33.3081 34.028C33.0375 33.9253 32.7995 33.7667 32.5941 33.552C32.3888 33.3373 32.2208 33.062 32.0901 32.726C31.9688 32.3807 31.9081 31.9747 31.9081 31.508C31.9081 30.7613 32.0295 30.0847 32.2721 29.478C32.5148 28.8713 32.8508 28.358 33.2801 27.938C33.7188 27.5087 34.2321 27.1773 34.8201 26.944C35.4175 26.7107 36.0661 26.594 36.7661 26.594C37.3448 26.594 37.9001 26.692 38.4321 26.888L37.3541 31.242C37.2981 31.4753 37.2515 31.6947 37.2141 31.9C37.1768 32.1053 37.1581 32.3013 37.1581 32.488C37.1581 32.74 37.1815 32.978 37.2281 33.202C37.2748 33.426 37.3588 33.6733 37.4801 33.944L36.5421 34.084ZM40.0066 35.848C40.2119 35.932 40.4406 35.974 40.6926 35.974C40.9073 35.974 41.0799 35.9413 41.2106 35.876C41.3413 35.8107 41.4066 35.6987 41.4066 35.54C41.4066 35.4 41.3599 35.288 41.2666 35.204C41.1826 35.12 41.0099 35.0267 40.7486 34.924C40.8046 34.812 40.8793 34.6813 40.9726 34.532C41.0659 34.392 41.1639 34.2567 41.2666 34.126C40.5853 34.0327 40.0719 33.7527 39.7266 33.286C39.3906 32.81 39.2226 32.194 39.2226 31.438C39.2226 30.8033 39.3206 30.1967 39.5166 29.618C39.7126 29.03 39.9973 28.512 40.3706 28.064C40.7533 27.616 41.2199 27.2613 41.7706 27C42.3213 26.7293 42.9466 26.594 43.6466 26.594C44.1319 26.594 44.6126 26.6733 45.0886 26.832L44.7106 27.658C44.4959 27.574 44.2813 27.518 44.0666 27.49C43.8613 27.4527 43.6606 27.434 43.4646 27.434C42.9699 27.434 42.5173 27.5413 42.1066 27.756C41.7053 27.9613 41.3599 28.246 41.0706 28.61C40.7813 28.9647 40.5573 29.38 40.3986 29.856C40.2399 30.3227 40.1606 30.8173 40.1606 31.34C40.1606 31.956 40.3006 32.4413 40.5806 32.796C40.8699 33.1507 41.3273 33.328 41.9526 33.328C42.1486 33.328 42.3446 33.3093 42.5406 33.272C42.7459 33.2347 42.9326 33.1927 43.1006 33.146C43.2686 33.09 43.4179 33.034 43.5486 32.978C43.6793 32.922 43.7773 32.8707 43.8426 32.824L43.9406 33.65C43.7633 33.762 43.4926 33.874 43.1286 33.986C42.7646 34.0887 42.3586 34.1493 41.9106 34.168C41.8639 34.2333 41.8173 34.2987 41.7706 34.364C41.7333 34.4293 41.7006 34.4853 41.6726 34.532C41.8873 34.6533 42.0413 34.7747 42.1346 34.896C42.2373 35.0267 42.2886 35.204 42.2886 35.428C42.2886 35.8107 42.1393 36.1047 41.8406 36.31C41.5513 36.5153 41.1826 36.618 40.7346 36.618C40.5759 36.618 40.4173 36.6087 40.2586 36.59C40.1093 36.5713 39.9413 36.5247 39.7546 36.45L40.0066 35.848ZM50.9166 27.546C50.7486 27.5087 50.5946 27.4807 50.4546 27.462C50.3146 27.4433 50.17 27.434 50.0206 27.434C49.442 27.434 48.9286 27.546 48.4806 27.77C48.0326 27.994 47.6546 28.288 47.3466 28.652C47.0386 29.016 46.8006 29.4313 46.6326 29.898C46.474 30.3647 46.3946 30.8407 46.3946 31.326C46.3946 31.7087 46.432 32.0307 46.5066 32.292C46.5813 32.544 46.684 32.7493 46.8146 32.908C46.9453 33.0573 47.0946 33.1693 47.2626 33.244C47.44 33.3093 47.6266 33.342 47.8226 33.342C48.2053 33.342 48.5646 33.2533 48.9006 33.076C49.2366 32.8893 49.554 32.628 49.8526 32.292C49.8526 32.04 49.89 31.7507 49.9646 31.424C50.0393 31.0973 50.1093 30.8033 50.1746 30.542L50.9166 27.546ZM50.1046 34.084C50.0486 33.972 49.9973 33.846 49.9506 33.706C49.9133 33.5567 49.8853 33.4073 49.8666 33.258C49.54 33.5753 49.1946 33.8087 48.8306 33.958C48.476 34.1073 48.1073 34.182 47.7246 34.182C47.426 34.182 47.1413 34.1307 46.8706 34.028C46.6 33.9253 46.362 33.7667 46.1566 33.552C45.9513 33.3373 45.7833 33.062 45.6526 32.726C45.5313 32.3807 45.4706 31.9747 45.4706 31.508C45.4706 30.7613 45.592 30.0847 45.8346 29.478C46.0773 28.8713 46.4133 28.358 46.8426 27.938C47.2813 27.5087 47.7946 27.1773 48.3826 26.944C48.98 26.7107 49.6286 26.594 50.3286 26.594C50.9073 26.594 51.4626 26.692 51.9946 26.888L50.9166 31.242C50.8606 31.4753 50.814 31.6947 50.7766 31.9C50.7393 32.1053 50.7206 32.3013 50.7206 32.488C50.7206 32.74 50.744 32.978 50.7906 33.202C50.8373 33.426 50.9213 33.6733 51.0426 33.944L50.1046 34.084ZM53.463 35.61C53.6123 35.6847 53.757 35.7407 53.897 35.778C54.0277 35.8153 54.1817 35.834 54.359 35.834C54.611 35.834 54.8257 35.7827 55.003 35.68C55.1803 35.5773 55.3343 35.4327 55.465 35.246C55.605 35.0687 55.717 34.854 55.801 34.602C55.8943 34.35 55.9783 34.0747 56.053 33.776L57.719 26.762H58.629L56.991 33.608C56.8697 34.112 56.7343 34.5507 56.585 34.924C56.445 35.3067 56.2677 35.624 56.053 35.876C55.8477 36.128 55.5957 36.3147 55.297 36.436C55.0077 36.5667 54.6577 36.632 54.247 36.632C54.0137 36.632 53.8177 36.604 53.659 36.548C53.491 36.5013 53.3557 36.4453 53.253 36.38L53.463 35.61ZM58.111 24.648C58.111 24.4053 58.1763 24.2233 58.307 24.102C58.447 23.9713 58.5963 23.906 58.755 23.906C58.9417 23.906 59.0863 23.9667 59.189 24.088C59.2917 24.2 59.343 24.3493 59.343 24.536C59.343 24.76 59.2683 24.9327 59.119 25.054C58.9697 25.1753 58.8203 25.236 58.671 25.236C58.4843 25.236 58.3443 25.1847 58.251 25.082C58.1577 24.97 58.111 24.8253 58.111 24.648ZM64.7799 27.546C64.6119 27.5087 64.4579 27.4807 64.3179 27.462C64.1779 27.4433 64.0332 27.434 63.8839 27.434C63.3052 27.434 62.7919 27.546 62.3439 27.77C61.8959 27.994 61.5179 28.288 61.2099 28.652C60.9019 29.016 60.6639 29.4313 60.4959 29.898C60.3372 30.3647 60.2579 30.8407 60.2579 31.326C60.2579 31.7087 60.2952 32.0307 60.3699 32.292C60.4446 32.544 60.5472 32.7493 60.6779 32.908C60.8086 33.0573 60.9579 33.1693 61.1259 33.244C61.3032 33.3093 61.4899 33.342 61.6859 33.342C62.0686 33.342 62.4279 33.2533 62.7639 33.076C63.0999 32.8893 63.4172 32.628 63.7159 32.292C63.7159 32.04 63.7532 31.7507 63.8279 31.424C63.9026 31.0973 63.9726 30.8033 64.0379 30.542L64.7799 27.546ZM63.9679 34.084C63.9119 33.972 63.8606 33.846 63.8139 33.706C63.7766 33.5567 63.7486 33.4073 63.7299 33.258C63.4032 33.5753 63.0579 33.8087 62.6939 33.958C62.3392 34.1073 61.9706 34.182 61.5879 34.182C61.2892 34.182 61.0046 34.1307 60.7339 34.028C60.4632 33.9253 60.2252 33.7667 60.0199 33.552C59.8146 33.3373 59.6466 33.062 59.5159 32.726C59.3946 32.3807 59.3339 31.9747 59.3339 31.508C59.3339 30.7613 59.4552 30.0847 59.6979 29.478C59.9406 28.8713 60.2766 28.358 60.7059 27.938C61.1446 27.5087 61.6579 27.1773 62.2459 26.944C62.8432 26.7107 63.4919 26.594 64.1919 26.594C64.7706 26.594 65.3259 26.692 65.8579 26.888L64.7799 31.242C64.7239 31.4753 64.6772 31.6947 64.6399 31.9C64.6026 32.1053 64.5839 32.3013 64.5839 32.488C64.5839 32.74 64.6072 32.978 64.6539 33.202C64.7006 33.426 64.7846 33.6733 64.9059 33.944L63.9679 34.084ZM66.0679 24.046L63.6179 25.838L63.2119 25.222L65.5359 23.178L66.0679 24.046ZM69.5943 32.852C69.9396 33.0387 70.2429 33.1647 70.5043 33.23C70.7656 33.2953 71.0596 33.328 71.3863 33.328C71.6196 33.328 71.8436 33.3047 72.0583 33.258C72.2729 33.202 72.4596 33.1227 72.6183 33.02C72.7769 32.9173 72.9029 32.782 72.9963 32.614C73.0896 32.446 73.1363 32.25 73.1363 32.026C73.1363 31.7833 73.0663 31.5827 72.9263 31.424C72.7956 31.2653 72.6276 31.13 72.4223 31.018C72.2263 30.8967 72.0116 30.78 71.7783 30.668C71.5449 30.556 71.3256 30.4253 71.1203 30.276C70.9243 30.1267 70.7563 29.94 70.6163 29.716C70.4856 29.492 70.4203 29.2027 70.4203 28.848C70.4203 28.4467 70.4949 28.106 70.6443 27.826C70.7936 27.5367 70.9943 27.3033 71.2463 27.126C71.4983 26.9393 71.7876 26.804 72.1143 26.72C72.4409 26.636 72.7769 26.594 73.1223 26.594C73.4209 26.594 73.7149 26.622 74.0043 26.678C74.3029 26.7247 74.5876 26.7993 74.8583 26.902L74.4943 27.714C74.2983 27.63 74.0743 27.5647 73.8223 27.518C73.5703 27.462 73.3089 27.434 73.0383 27.434C72.8143 27.434 72.5949 27.4573 72.3803 27.504C72.1749 27.5507 71.9929 27.63 71.8343 27.742C71.6756 27.8447 71.5449 27.98 71.4423 28.148C71.3489 28.3067 71.3023 28.5027 71.3023 28.736C71.3023 28.9787 71.3676 29.1793 71.4983 29.338C71.6383 29.4967 71.8063 29.6367 72.0023 29.758C72.1983 29.8793 72.4129 29.996 72.6463 30.108C72.8889 30.2107 73.1083 30.3367 73.3043 30.486C73.5003 30.6353 73.6636 30.8173 73.7943 31.032C73.9343 31.2373 74.0043 31.5033 74.0043 31.83C74.0043 32.2407 73.9249 32.5953 73.7663 32.894C73.6169 33.1927 73.4163 33.4353 73.1643 33.622C72.9123 33.8087 72.6229 33.944 72.2963 34.028C71.9696 34.1213 71.6336 34.168 71.2883 34.168C70.9243 34.168 70.5603 34.126 70.1963 34.042C69.8323 33.9673 69.5009 33.846 69.2023 33.678L69.5943 32.852ZM81.6957 28.456C81.6957 28.9787 81.5651 29.4033 81.3037 29.73C81.0517 30.0567 80.6924 30.318 80.2257 30.514C79.7684 30.7007 79.2131 30.836 78.5597 30.92C77.9157 31.004 77.1971 31.0647 76.4037 31.102V31.396C76.4037 31.6667 76.4317 31.9187 76.4877 32.152C76.5437 32.3853 76.6464 32.5907 76.7957 32.768C76.9451 32.936 77.1504 33.0713 77.4117 33.174C77.6824 33.2767 78.0277 33.328 78.4477 33.328C78.7744 33.328 79.1011 33.2813 79.4277 33.188C79.7637 33.0947 80.0811 32.9547 80.3797 32.768L80.4777 33.608C80.1604 33.7853 79.8104 33.9207 79.4277 34.014C79.0451 34.1167 78.6577 34.168 78.2657 34.168C77.7524 34.168 77.3184 34.1027 76.9637 33.972C76.6184 33.8413 76.3337 33.6593 76.1097 33.426C75.8951 33.1927 75.7411 32.9127 75.6477 32.586C75.5544 32.2593 75.5077 31.9 75.5077 31.508C75.5077 30.9107 75.5964 30.318 75.7737 29.73C75.9604 29.142 76.2311 28.6147 76.5857 28.148C76.9404 27.6813 77.3744 27.308 77.8877 27.028C78.4104 26.7387 79.0031 26.594 79.6657 26.594C80.3191 26.594 80.8184 26.7667 81.1637 27.112C81.5184 27.448 81.6957 27.896 81.6957 28.456ZM79.5817 27.42C79.2084 27.42 78.8584 27.4993 78.5317 27.658C78.2051 27.8073 77.9111 28.0127 77.6497 28.274C77.3884 28.5353 77.1597 28.8387 76.9637 29.184C76.7771 29.5293 76.6371 29.8933 76.5437 30.276C77.3371 30.2573 78.0044 30.206 78.5457 30.122C79.0871 30.038 79.5211 29.9213 79.8477 29.772C80.1837 29.6227 80.4217 29.4453 80.5617 29.24C80.7017 29.0253 80.7717 28.7827 80.7717 28.512C80.7717 28.148 80.6597 27.8773 80.4357 27.7C80.2211 27.5133 79.9364 27.42 79.5817 27.42ZM84.4437 34.168C84.0423 34.168 83.7063 34.1167 83.4357 34.014C83.165 33.9113 82.9503 33.7713 82.7917 33.594C82.633 33.4073 82.5163 33.1927 82.4417 32.95C82.3763 32.698 82.3437 32.4273 82.3437 32.138C82.3437 31.8673 82.367 31.5827 82.4137 31.284C82.4603 30.976 82.521 30.668 82.5957 30.36L83.4637 26.762H84.3737L83.6037 29.954C83.529 30.2807 83.445 30.626 83.3517 30.99C83.2677 31.3447 83.2257 31.6853 83.2257 32.012C83.2257 32.1987 83.2443 32.3713 83.2817 32.53C83.3283 32.6887 83.403 32.8287 83.5057 32.95C83.6083 33.0713 83.7437 33.1647 83.9117 33.23C84.0797 33.2953 84.2943 33.328 84.5557 33.328C85.0037 33.328 85.3957 33.2393 85.7317 33.062C86.077 32.8847 86.399 32.628 86.6977 32.292C86.6977 32.04 86.735 31.7507 86.8097 31.424C86.8843 31.0973 86.9543 30.8033 87.0197 30.542L87.9577 26.762H88.8677L87.7617 31.242C87.7057 31.4753 87.659 31.6947 87.6217 31.9C87.5843 32.1053 87.5657 32.3013 87.5657 32.488C87.5657 32.74 87.589 32.978 87.6357 33.202C87.6823 33.426 87.7663 33.6733 87.8877 33.944L86.9497 34.084C86.8937 33.972 86.8423 33.846 86.7957 33.706C86.7583 33.5567 86.7303 33.4073 86.7117 33.258C86.385 33.5753 86.035 33.8087 85.6617 33.958C85.2977 34.098 84.8917 34.168 84.4437 34.168ZM22.4142 49.16C22.7035 49.244 22.9975 49.286 23.2962 49.286C23.8748 49.286 24.3882 49.174 24.8362 48.95C25.2842 48.7167 25.6622 48.418 25.9702 48.054C26.2782 47.6807 26.5115 47.2653 26.6702 46.808C26.8288 46.3413 26.9082 45.87 26.9082 45.394C26.9082 44.694 26.7542 44.1853 26.4462 43.868C26.1382 43.5413 25.6762 43.378 25.0602 43.378C24.8455 43.378 24.6262 43.3967 24.4022 43.434C24.1875 43.4713 23.9635 43.5227 23.7302 43.588L22.4142 49.16ZM22.9462 43.056C23.3382 42.916 23.7302 42.804 24.1222 42.72C24.5142 42.636 24.9015 42.594 25.2842 42.594C26.9828 42.594 27.8322 43.4807 27.8322 45.254C27.8322 45.8793 27.7295 46.486 27.5242 47.074C27.3188 47.662 27.0155 48.1847 26.6142 48.642C26.2222 49.09 25.7368 49.4493 25.1582 49.72C24.5888 49.9907 23.9355 50.126 23.1982 50.126C22.8342 50.126 22.4982 50.084 22.1902 50L21.5742 52.59H20.6502L22.9462 43.056ZM34.9379 44.456C34.9379 44.9787 34.8073 45.4033 34.5459 45.73C34.2939 46.0567 33.9346 46.318 33.4679 46.514C33.0106 46.7007 32.4553 46.836 31.8019 46.92C31.1579 47.004 30.4393 47.0647 29.6459 47.102V47.396C29.6459 47.6667 29.6739 47.9187 29.7299 48.152C29.7859 48.3853 29.8886 48.5907 30.0379 48.768C30.1873 48.936 30.3926 49.0713 30.6539 49.174C30.9246 49.2767 31.2699 49.328 31.6899 49.328C32.0166 49.328 32.3433 49.2813 32.6699 49.188C33.0059 49.0947 33.3233 48.9547 33.6219 48.768L33.7199 49.608C33.4026 49.7853 33.0526 49.9207 32.6699 50.014C32.2873 50.1167 31.8999 50.168 31.5079 50.168C30.9946 50.168 30.5606 50.1027 30.2059 49.972C29.8606 49.8413 29.5759 49.6593 29.3519 49.426C29.1373 49.1927 28.9833 48.9127 28.8899 48.586C28.7966 48.2593 28.7499 47.9 28.7499 47.508C28.7499 46.9107 28.8386 46.318 29.0159 45.73C29.2026 45.142 29.4733 44.6147 29.8279 44.148C30.1826 43.6813 30.6166 43.308 31.1299 43.028C31.6526 42.7387 32.2453 42.594 32.9079 42.594C33.5613 42.594 34.0606 42.7667 34.4059 43.112C34.7606 43.448 34.9379 43.896 34.9379 44.456ZM32.8239 43.42C32.4506 43.42 32.1006 43.4993 31.7739 43.658C31.4473 43.8073 31.1533 44.0127 30.8919 44.274C30.6306 44.5353 30.4019 44.8387 30.2059 45.184C30.0193 45.5293 29.8793 45.8933 29.7859 46.276C30.5793 46.2573 31.2466 46.206 31.7879 46.122C32.3293 46.038 32.7633 45.9213 33.0899 45.772C33.4259 45.6227 33.6639 45.4453 33.8039 45.24C33.9439 45.0253 34.0139 44.7827 34.0139 44.512C34.0139 44.148 33.9019 43.8773 33.6779 43.7C33.4633 43.5133 33.1786 43.42 32.8239 43.42ZM41.1159 43.504C40.9852 43.4853 40.8405 43.4713 40.6819 43.462C40.5232 43.4433 40.3785 43.434 40.2479 43.434C39.5945 43.434 39.0299 43.5553 38.5539 43.798C38.0872 44.0313 37.6999 44.3393 37.3919 44.722C37.0932 45.0953 36.8692 45.5153 36.7199 45.982C36.5799 46.4393 36.5099 46.892 36.5099 47.34C36.5099 47.62 36.5332 47.8813 36.5799 48.124C36.6359 48.3573 36.7199 48.5673 36.8319 48.754C36.9439 48.9313 37.0885 49.0713 37.2659 49.174C37.4432 49.2767 37.6579 49.328 37.9099 49.328C38.1432 49.328 38.3625 49.2953 38.5679 49.23C38.7825 49.1647 38.9785 49.0853 39.1559 48.992C39.3425 48.8893 39.5105 48.7773 39.6599 48.656C39.8092 48.5347 39.9352 48.418 40.0379 48.306C40.0379 48.0633 40.0705 47.7927 40.1359 47.494C40.2012 47.186 40.2759 46.8687 40.3599 46.542L41.1159 43.504ZM40.2899 50.084C40.2432 49.9907 40.1965 49.8693 40.1499 49.72C40.1032 49.5613 40.0705 49.4073 40.0519 49.258C39.9679 49.3513 39.8559 49.454 39.7159 49.566C39.5852 49.6687 39.4265 49.7667 39.2399 49.86C39.0532 49.944 38.8432 50.014 38.6099 50.07C38.3765 50.1353 38.1199 50.168 37.8399 50.168C37.4385 50.168 37.0932 50.098 36.8039 49.958C36.5239 49.8087 36.2905 49.6127 36.1039 49.37C35.9265 49.1273 35.7959 48.8427 35.7119 48.516C35.6279 48.18 35.5859 47.83 35.5859 47.466C35.5859 46.878 35.6792 46.2947 35.8659 45.716C36.0619 45.1373 36.3559 44.6193 36.7479 44.162C37.1492 43.6953 37.6532 43.3173 38.2599 43.028C38.8665 42.7387 39.5805 42.594 40.4019 42.594C40.7005 42.594 41.0039 42.622 41.3119 42.678L42.1099 39.304L43.0619 39.136L41.0459 47.494C40.9992 47.662 40.9619 47.8253 40.9339 47.984C40.9152 48.1427 40.9059 48.2967 40.9059 48.446C40.9059 48.7167 40.9292 48.9733 40.9759 49.216C41.0225 49.4587 41.1065 49.7013 41.2279 49.944L40.2899 50.084ZM44.6864 42.762H45.5964L43.8464 50H42.9364L44.6864 42.762ZM45.0504 40.648C45.0504 40.4053 45.1157 40.2233 45.2464 40.102C45.3864 39.9713 45.5357 39.906 45.6944 39.906C45.8811 39.906 46.0257 39.9667 46.1284 40.088C46.2311 40.2 46.2824 40.3493 46.2824 40.536C46.2824 40.76 46.2077 40.9327 46.0584 41.054C45.9091 41.1753 45.7597 41.236 45.6104 41.236C45.4237 41.236 45.2837 41.1847 45.1904 41.082C45.0971 40.97 45.0504 40.8253 45.0504 40.648ZM51.9713 43.504C51.8407 43.4853 51.696 43.4713 51.5373 43.462C51.3787 43.4433 51.234 43.434 51.1033 43.434C50.45 43.434 49.8853 43.5553 49.4093 43.798C48.9427 44.0313 48.5553 44.3393 48.2473 44.722C47.9487 45.0953 47.7247 45.5153 47.5753 45.982C47.4353 46.4393 47.3653 46.892 47.3653 47.34C47.3653 47.62 47.3887 47.8813 47.4353 48.124C47.4913 48.3573 47.5753 48.5673 47.6873 48.754C47.7993 48.9313 47.944 49.0713 48.1213 49.174C48.2987 49.2767 48.5133 49.328 48.7653 49.328C48.9987 49.328 49.218 49.2953 49.4233 49.23C49.638 49.1647 49.834 49.0853 50.0113 48.992C50.198 48.8893 50.366 48.7773 50.5153 48.656C50.6647 48.5347 50.7907 48.418 50.8933 48.306C50.8933 48.0633 50.926 47.7927 50.9913 47.494C51.0567 47.186 51.1313 46.8687 51.2153 46.542L51.9713 43.504ZM51.1453 50.084C51.0987 49.9907 51.052 49.8693 51.0053 49.72C50.9587 49.5613 50.926 49.4073 50.9073 49.258C50.8233 49.3513 50.7113 49.454 50.5713 49.566C50.4407 49.6687 50.282 49.7667 50.0953 49.86C49.9087 49.944 49.6987 50.014 49.4653 50.07C49.232 50.1353 48.9753 50.168 48.6953 50.168C48.294 50.168 47.9487 50.098 47.6593 49.958C47.3793 49.8087 47.146 49.6127 46.9593 49.37C46.782 49.1273 46.6513 48.8427 46.5673 48.516C46.4833 48.18 46.4413 47.83 46.4413 47.466C46.4413 46.878 46.5347 46.2947 46.7213 45.716C46.9173 45.1373 47.2113 44.6193 47.6033 44.162C48.0047 43.6953 48.5087 43.3173 49.1153 43.028C49.722 42.7387 50.436 42.594 51.2573 42.594C51.556 42.594 51.8593 42.622 52.1673 42.678L52.9653 39.304L53.9173 39.136L51.9013 47.494C51.8547 47.662 51.8173 47.8253 51.7893 47.984C51.7707 48.1427 51.7613 48.2967 51.7613 48.446C51.7613 48.7167 51.7847 48.9733 51.8313 49.216C51.878 49.4587 51.962 49.7013 52.0833 49.944L51.1453 50.084ZM54.9259 47.676C54.9259 48.2267 55.0799 48.642 55.3879 48.922C55.6959 49.202 56.0645 49.342 56.4939 49.342C56.8299 49.342 57.1752 49.258 57.5299 49.09C57.8845 48.9127 58.2065 48.6513 58.4959 48.306C58.7945 47.9513 59.0372 47.508 59.2239 46.976C59.4199 46.444 59.5179 45.8187 59.5179 45.1C59.5179 44.5493 59.3639 44.134 59.0559 43.854C58.7479 43.574 58.3792 43.434 57.9499 43.434C57.6139 43.434 57.2685 43.5227 56.9139 43.7C56.5592 43.868 56.2325 44.1293 55.9339 44.484C55.6445 44.8293 55.4019 45.268 55.2059 45.8C55.0192 46.332 54.9259 46.9573 54.9259 47.676ZM60.4419 45.03C60.4419 45.9073 60.3159 46.668 60.0639 47.312C59.8212 47.956 59.5039 48.4927 59.1119 48.922C58.7292 49.342 58.2999 49.6547 57.8239 49.86C57.3572 50.0653 56.8952 50.168 56.4379 50.168C56.1112 50.168 55.7985 50.1167 55.4999 50.014C55.2105 49.9113 54.9539 49.7573 54.7299 49.552C54.5059 49.3467 54.3285 49.0947 54.1979 48.796C54.0672 48.488 54.0019 48.1333 54.0019 47.732C54.0019 46.8547 54.1232 46.094 54.3659 45.45C54.6179 44.806 54.9352 44.274 55.3179 43.854C55.7099 43.434 56.1392 43.1213 56.6059 42.916C57.0819 42.7107 57.5485 42.608 58.0059 42.608C58.3325 42.608 58.6405 42.6593 58.9299 42.762C59.2285 42.8647 59.4899 43.0187 59.7139 43.224C59.9379 43.4293 60.1152 43.686 60.2459 43.994C60.3765 44.2927 60.4419 44.638 60.4419 45.03ZM70.0709 43.546C69.9029 43.5087 69.7489 43.4807 69.6089 43.462C69.4689 43.4433 69.3243 43.434 69.1749 43.434C68.5963 43.434 68.0829 43.546 67.6349 43.77C67.1869 43.994 66.8089 44.288 66.5009 44.652C66.1929 45.016 65.9549 45.4313 65.7869 45.898C65.6283 46.3647 65.5489 46.8407 65.5489 47.326C65.5489 47.7087 65.5863 48.0307 65.6609 48.292C65.7356 48.544 65.8383 48.7493 65.9689 48.908C66.0996 49.0573 66.2489 49.1693 66.4169 49.244C66.5943 49.3093 66.7809 49.342 66.9769 49.342C67.3596 49.342 67.7189 49.2533 68.0549 49.076C68.3909 48.8893 68.7083 48.628 69.0069 48.292C69.0069 48.04 69.0443 47.7507 69.1189 47.424C69.1936 47.0973 69.2636 46.8033 69.3289 46.542L70.0709 43.546ZM69.2589 50.084C69.2029 49.972 69.1516 49.846 69.1049 49.706C69.0676 49.5567 69.0396 49.4073 69.0209 49.258C68.6943 49.5753 68.3489 49.8087 67.9849 49.958C67.6303 50.1073 67.2616 50.182 66.8789 50.182C66.5803 50.182 66.2956 50.1307 66.0249 50.028C65.7543 49.9253 65.5163 49.7667 65.3109 49.552C65.1056 49.3373 64.9376 49.062 64.8069 48.726C64.6856 48.3807 64.6249 47.9747 64.6249 47.508C64.6249 46.7613 64.7463 46.0847 64.9889 45.478C65.2316 44.8713 65.5676 44.358 65.9969 43.938C66.4356 43.5087 66.9489 43.1773 67.5369 42.944C68.1343 42.7107 68.7829 42.594 69.4829 42.594C70.0616 42.594 70.6169 42.692 71.1489 42.888L70.0709 47.242C70.0149 47.4753 69.9683 47.6947 69.9309 47.9C69.8936 48.1053 69.8749 48.3013 69.8749 48.488C69.8749 48.74 69.8983 48.978 69.9449 49.202C69.9916 49.426 70.0756 49.6733 70.1969 49.944L69.2589 50.084ZM77.5114 43.518C77.4087 43.4993 77.2967 43.476 77.1754 43.448C77.0634 43.42 76.9607 43.406 76.8674 43.406C76.2607 43.406 75.71 43.5087 75.2154 43.714C74.73 43.91 74.31 44.1853 73.9554 44.54C73.61 44.8947 73.3394 45.3193 73.1434 45.814C72.9567 46.2993 72.8634 46.8313 72.8634 47.41C72.8634 47.606 72.882 47.8207 72.9194 48.054C72.9567 48.278 73.0314 48.488 73.1434 48.684C73.2554 48.88 73.414 49.0433 73.6194 49.174C73.834 49.3047 74.114 49.37 74.4594 49.37C74.786 49.37 75.108 49.314 75.4254 49.202C75.7427 49.0807 76.018 48.9267 76.2514 48.74L77.5114 43.518ZM75.9994 49.776C75.7847 49.8973 75.5234 49.9907 75.2154 50.056C74.9167 50.1307 74.5994 50.168 74.2634 50.168C73.8434 50.168 73.484 50.098 73.1854 49.958C72.896 49.8087 72.658 49.6127 72.4714 49.37C72.2847 49.1273 72.1494 48.8473 72.0654 48.53C71.9814 48.2127 71.9394 47.8813 71.9394 47.536C71.9394 46.948 72.0327 46.36 72.2194 45.772C72.4154 45.1747 72.7187 44.6427 73.1294 44.176C73.5494 43.7093 74.086 43.3313 74.7394 43.042C75.402 42.7433 76.2047 42.594 77.1474 42.594C77.3247 42.594 77.5534 42.622 77.8334 42.678C78.1227 42.734 78.3654 42.8273 78.5614 42.958L76.2374 52.59H75.3274L75.9994 49.776ZM81.5863 50.168C81.1849 50.168 80.8489 50.1167 80.5783 50.014C80.3076 49.9113 80.0929 49.7713 79.9343 49.594C79.7756 49.4073 79.6589 49.1927 79.5843 48.95C79.5189 48.698 79.4863 48.4273 79.4863 48.138C79.4863 47.8673 79.5096 47.5827 79.5563 47.284C79.6029 46.976 79.6636 46.668 79.7383 46.36L80.6063 42.762H81.5163L80.7463 45.954C80.6716 46.2807 80.5876 46.626 80.4943 46.99C80.4103 47.3447 80.3683 47.6853 80.3683 48.012C80.3683 48.1987 80.3869 48.3713 80.4243 48.53C80.4709 48.6887 80.5456 48.8287 80.6483 48.95C80.7509 49.0713 80.8863 49.1647 81.0543 49.23C81.2223 49.2953 81.4369 49.328 81.6983 49.328C82.1463 49.328 82.5383 49.2393 82.8743 49.062C83.2196 48.8847 83.5416 48.628 83.8403 48.292C83.8403 48.04 83.8776 47.7507 83.9523 47.424C84.0269 47.0973 84.0969 46.8033 84.1623 46.542L85.1003 42.762H86.0103L84.9043 47.242C84.8483 47.4753 84.8016 47.6947 84.7643 47.9C84.7269 48.1053 84.7083 48.3013 84.7083 48.488C84.7083 48.74 84.7316 48.978 84.7783 49.202C84.8249 49.426 84.9089 49.6733 85.0303 49.944L84.0923 50.084C84.0363 49.972 83.9849 49.846 83.9383 49.706C83.9009 49.5567 83.8729 49.4073 83.8543 49.258C83.5276 49.5753 83.1776 49.8087 82.8043 49.958C82.4403 50.098 82.0343 50.168 81.5863 50.168ZM88.3407 42.762H89.2507L87.5007 50H86.5907L88.3407 42.762ZM88.7047 40.648C88.7047 40.4053 88.77 40.2233 88.9007 40.102C89.0407 39.9713 89.19 39.906 89.3487 39.906C89.5354 39.906 89.68 39.9667 89.7827 40.088C89.8854 40.2 89.9367 40.3493 89.9367 40.536C89.9367 40.76 89.862 40.9327 89.7127 41.054C89.5634 41.1753 89.414 41.236 89.2647 41.236C89.078 41.236 88.938 41.1847 88.8447 41.082C88.7514 40.97 88.7047 40.8253 88.7047 40.648ZM90.7816 47.018C90.8563 46.402 90.945 45.7767 91.0476 45.142C91.1503 44.5073 91.295 43.7933 91.4816 43L92.1256 40.298H93.1056L92.4616 43.014C92.4243 43.1727 92.359 43.4247 92.2656 43.77C92.1723 44.1153 92.065 44.4887 91.9436 44.89C91.8316 45.2913 91.715 45.688 91.5936 46.08C91.4816 46.472 91.379 46.7847 91.2856 47.018H90.7816ZM90.4456 50.168C90.203 50.168 90.0256 50.1027 89.9136 49.972C89.8016 49.832 89.7456 49.6733 89.7456 49.496C89.7456 49.2907 89.8156 49.0993 89.9556 48.922C90.0956 48.7353 90.2916 48.642 90.5436 48.642C90.7863 48.642 90.9636 48.712 91.0756 48.852C91.1876 48.9827 91.2436 49.1367 91.2436 49.314C91.2436 49.5193 91.1736 49.7153 91.0336 49.902C90.8936 50.0793 90.6976 50.168 90.4456 50.168Z" fill="white"/>
<path d="M62 64H61C61 63.337 60.7366 62.7011 60.2678 62.2322C59.7989 61.7634 59.163 61.5 58.5 61.5C57.837 61.5 57.2011 61.7634 56.7322 62.2322C56.2634 62.7011 56 63.337 56 64H55C55 63.0717 55.3687 62.1815 56.0251 61.5251C56.6815 60.8687 57.5717 60.5 58.5 60.5C59.4283 60.5 60.3185 60.8687 60.9749 61.5251C61.6313 62.1815 62 63.0717 62 64Z" fill="white"/>
<path d="M64.5 67.5C64.2417 67.5009 63.9882 67.5699 63.765 67.7C63.6302 67.4862 63.4436 67.3099 63.2224 67.1875C63.0013 67.0652 62.7528 67.0007 62.5 67C62.2417 67.0009 61.9882 67.0699 61.765 67.2C61.5831 66.9138 61.3096 66.6976 60.989 66.5868C60.6685 66.4761 60.3199 66.4772 60 66.59V64C60 63.6022 59.842 63.2206 59.5607 62.9393C59.2794 62.658 58.8979 62.5 58.5 62.5C58.1022 62.5 57.7207 62.658 57.4394 62.9393C57.1581 63.2206 57 63.6022 57 64V69.55L55.885 68.79C55.6294 68.5996 55.3187 68.4978 55 68.5C54.7025 68.4993 54.4115 68.587 54.164 68.7521C53.9165 68.9172 53.7237 69.1521 53.6101 69.4271C53.4964 69.7021 53.4671 70.0046 53.5259 70.2963C53.5846 70.5879 53.7288 70.8555 53.94 71.065L57.94 74.715C58.5063 75.2219 59.24 75.5015 60 75.5H62.5C63.4283 75.5 64.3185 75.1313 64.9749 74.4749C65.6313 73.8185 66 72.9283 66 72V69C66 68.6022 65.842 68.2206 65.5607 67.9393C65.2794 67.658 64.8979 67.5 64.5 67.5ZM65 72C65 72.663 64.7366 73.2989 64.2678 73.7678C63.799 74.2366 63.1631 74.5 62.5 74.5H60C59.4946 74.5061 59.0042 74.3284 58.62 74L54.645 70.35C54.5527 70.2569 54.5006 70.1312 54.5 70C54.5 69.9071 54.5259 69.8161 54.5747 69.7371C54.6235 69.6581 54.6934 69.5943 54.7764 69.5528C54.8595 69.5113 54.9525 69.4937 55.0449 69.502C55.1374 69.5104 55.2258 69.5443 55.3 69.6L58 71.45V64C58 63.8674 58.0527 63.7402 58.1465 63.6464C58.2403 63.5527 58.3674 63.5 58.5 63.5C58.6326 63.5 58.7598 63.5527 58.8536 63.6464C58.9474 63.7402 59 63.8674 59 64V69.5H60V68C60 67.8674 60.0527 67.7402 60.1465 67.6464C60.2403 67.5527 60.3674 67.5 60.5 67.5C60.6326 67.5 60.7598 67.5527 60.8536 67.6464C60.9474 67.7402 61 67.8674 61 68V69.5H62V68.5C62 68.3674 62.0527 68.2402 62.1465 68.1464C62.2403 68.0527 62.3674 68 62.5 68C62.6326 68 62.7598 68.0527 62.8536 68.1464C62.9474 68.2402 63 68.3674 63 68.5V69.5H64V69C64 68.8674 64.0527 68.7402 64.1465 68.6464C64.2403 68.5527 64.3674 68.5 64.5 68.5C64.6326 68.5 64.7598 68.5527 64.8536 68.6464C64.9474 68.7402 65 68.8674 65 69V72Z" fill="white"/>
</svg>
