<svg width="122" height="98" viewBox="0 0 122 98" fill="none" xmlns="http://www.w3.org/2000/svg">
<path fill-rule="evenodd" clip-rule="evenodd" d="M2.93277 38.2393C3.15331 28.336 -0.408198 16.7257 6.69436 9.23158C13.9649 1.56019 27.0997 0.906021 38.2177 1.00909C46.8446 1.08906 53.6237 7.19861 61.7877 9.74231C67.0093 11.3692 72.0932 12.8493 77.5912 13.2768C88.1855 14.1007 99.9532 8.23545 108.946 13.4097C117.482 18.3216 121.357 29.0408 120.974 38.2393C120.594 47.3885 113.644 55.2014 106.926 62.0057C101.008 68.0006 91.6544 69.5442 84.9124 74.7662C76.2338 81.4882 73.1354 97.8229 61.7877 96.9677C49.9573 96.076 51.1069 76.7606 40.7692 71.4393C30.2589 66.0291 14.084 75.5667 5.38704 67.9354C-2.59279 60.9334 2.70791 48.3361 2.93277 38.2393Z" fill="#111111" stroke="white" stroke-width="0.5"/>
<path d="M28.1999 25.298H33.5619L33.3799 26.124H28.9419L28.1019 29.54H32.0639L31.8679 30.366H27.9479L26.8279 35H25.8759L28.1999 25.298ZM38.3541 28.546C38.1861 28.5087 38.0321 28.4807 37.8921 28.462C37.7521 28.4433 37.6075 28.434 37.4581 28.434C36.8795 28.434 36.3661 28.546 35.9181 28.77C35.4701 28.994 35.0921 29.288 34.7841 29.652C34.4761 30.016 34.2381 30.4313 34.0701 30.898C33.9115 31.3647 33.8321 31.8407 33.8321 32.326C33.8321 32.7087 33.8695 33.0307 33.9441 33.292C34.0188 33.544 34.1215 33.7493 34.2521 33.908C34.3828 34.0573 34.5321 34.1693 34.7001 34.244C34.8775 34.3093 35.0641 34.342 35.2601 34.342C35.6428 34.342 36.0021 34.2533 36.3381 34.076C36.6741 33.8893 36.9915 33.628 37.2901 33.292C37.2901 33.04 37.3275 32.7507 37.4021 32.424C37.4768 32.0973 37.5468 31.8033 37.6121 31.542L38.3541 28.546ZM37.5421 35.084C37.4861 34.972 37.4348 34.846 37.3881 34.706C37.3508 34.5567 37.3228 34.4073 37.3041 34.258C36.9775 34.5753 36.6321 34.8087 36.2681 34.958C35.9135 35.1073 35.5448 35.182 35.1621 35.182C34.8635 35.182 34.5788 35.1307 34.3081 35.028C34.0375 34.9253 33.7995 34.7667 33.5941 34.552C33.3888 34.3373 33.2208 34.062 33.0901 33.726C32.9688 33.3807 32.9081 32.9747 32.9081 32.508C32.9081 31.7613 33.0295 31.0847 33.2721 30.478C33.5148 29.8713 33.8508 29.358 34.2801 28.938C34.7188 28.5087 35.2321 28.1773 35.8201 27.944C36.4175 27.7107 37.0661 27.594 37.7661 27.594C38.3448 27.594 38.9001 27.692 39.4321 27.888L38.3541 32.242C38.2981 32.4753 38.2515 32.6947 38.2141 32.9C38.1768 33.1053 38.1581 33.3013 38.1581 33.488C38.1581 33.74 38.1815 33.978 38.2281 34.202C38.2748 34.426 38.3588 34.6733 38.4801 34.944L37.5421 35.084ZM41.0066 36.848C41.2119 36.932 41.4406 36.974 41.6926 36.974C41.9073 36.974 42.0799 36.9413 42.2106 36.876C42.3413 36.8107 42.4066 36.6987 42.4066 36.54C42.4066 36.4 42.3599 36.288 42.2666 36.204C42.1826 36.12 42.0099 36.0267 41.7486 35.924C41.8046 35.812 41.8793 35.6813 41.9726 35.532C42.0659 35.392 42.1639 35.2567 42.2666 35.126C41.5853 35.0327 41.0719 34.7527 40.7266 34.286C40.3906 33.81 40.2226 33.194 40.2226 32.438C40.2226 31.8033 40.3206 31.1967 40.5166 30.618C40.7126 30.03 40.9973 29.512 41.3706 29.064C41.7533 28.616 42.2199 28.2613 42.7706 28C43.3213 27.7293 43.9466 27.594 44.6466 27.594C45.1319 27.594 45.6126 27.6733 46.0886 27.832L45.7106 28.658C45.4959 28.574 45.2813 28.518 45.0666 28.49C44.8613 28.4527 44.6606 28.434 44.4646 28.434C43.9699 28.434 43.5173 28.5413 43.1066 28.756C42.7053 28.9613 42.3599 29.246 42.0706 29.61C41.7813 29.9647 41.5573 30.38 41.3986 30.856C41.2399 31.3227 41.1606 31.8173 41.1606 32.34C41.1606 32.956 41.3006 33.4413 41.5806 33.796C41.8699 34.1507 42.3273 34.328 42.9526 34.328C43.1486 34.328 43.3446 34.3093 43.5406 34.272C43.7459 34.2347 43.9326 34.1927 44.1006 34.146C44.2686 34.09 44.4179 34.034 44.5486 33.978C44.6793 33.922 44.7773 33.8707 44.8426 33.824L44.9406 34.65C44.7633 34.762 44.4926 34.874 44.1286 34.986C43.7646 35.0887 43.3586 35.1493 42.9106 35.168C42.8639 35.2333 42.8173 35.2987 42.7706 35.364C42.7333 35.4293 42.7006 35.4853 42.6726 35.532C42.8873 35.6533 43.0413 35.7747 43.1346 35.896C43.2373 36.0267 43.2886 36.204 43.2886 36.428C43.2886 36.8107 43.1393 37.1047 42.8406 37.31C42.5513 37.5153 42.1826 37.618 41.7346 37.618C41.5759 37.618 41.4173 37.6087 41.2586 37.59C41.1093 37.5713 40.9413 37.5247 40.7546 37.45L41.0066 36.848ZM51.9166 28.546C51.7486 28.5087 51.5946 28.4807 51.4546 28.462C51.3146 28.4433 51.17 28.434 51.0206 28.434C50.442 28.434 49.9286 28.546 49.4806 28.77C49.0326 28.994 48.6546 29.288 48.3466 29.652C48.0386 30.016 47.8006 30.4313 47.6326 30.898C47.474 31.3647 47.3946 31.8407 47.3946 32.326C47.3946 32.7087 47.432 33.0307 47.5066 33.292C47.5813 33.544 47.684 33.7493 47.8146 33.908C47.9453 34.0573 48.0946 34.1693 48.2626 34.244C48.44 34.3093 48.6266 34.342 48.8226 34.342C49.2053 34.342 49.5646 34.2533 49.9006 34.076C50.2366 33.8893 50.554 33.628 50.8526 33.292C50.8526 33.04 50.89 32.7507 50.9646 32.424C51.0393 32.0973 51.1093 31.8033 51.1746 31.542L51.9166 28.546ZM51.1046 35.084C51.0486 34.972 50.9973 34.846 50.9506 34.706C50.9133 34.5567 50.8853 34.4073 50.8666 34.258C50.54 34.5753 50.1946 34.8087 49.8306 34.958C49.476 35.1073 49.1073 35.182 48.7246 35.182C48.426 35.182 48.1413 35.1307 47.8706 35.028C47.6 34.9253 47.362 34.7667 47.1566 34.552C46.9513 34.3373 46.7833 34.062 46.6526 33.726C46.5313 33.3807 46.4706 32.9747 46.4706 32.508C46.4706 31.7613 46.592 31.0847 46.8346 30.478C47.0773 29.8713 47.4133 29.358 47.8426 28.938C48.2813 28.5087 48.7946 28.1773 49.3826 27.944C49.98 27.7107 50.6286 27.594 51.3286 27.594C51.9073 27.594 52.4626 27.692 52.9946 27.888L51.9166 32.242C51.8606 32.4753 51.814 32.6947 51.7766 32.9C51.7393 33.1053 51.7206 33.3013 51.7206 33.488C51.7206 33.74 51.744 33.978 51.7906 34.202C51.8373 34.426 51.9213 34.6733 52.0426 34.944L51.1046 35.084ZM54.463 36.61C54.6123 36.6847 54.757 36.7407 54.897 36.778C55.0277 36.8153 55.1817 36.834 55.359 36.834C55.611 36.834 55.8257 36.7827 56.003 36.68C56.1803 36.5773 56.3343 36.4327 56.465 36.246C56.605 36.0687 56.717 35.854 56.801 35.602C56.8943 35.35 56.9783 35.0747 57.053 34.776L58.719 27.762H59.629L57.991 34.608C57.8697 35.112 57.7343 35.5507 57.585 35.924C57.445 36.3067 57.2677 36.624 57.053 36.876C56.8477 37.128 56.5957 37.3147 56.297 37.436C56.0077 37.5667 55.6577 37.632 55.247 37.632C55.0137 37.632 54.8177 37.604 54.659 37.548C54.491 37.5013 54.3557 37.4453 54.253 37.38L54.463 36.61ZM59.111 25.648C59.111 25.4053 59.1763 25.2233 59.307 25.102C59.447 24.9713 59.5963 24.906 59.755 24.906C59.9417 24.906 60.0863 24.9667 60.189 25.088C60.2917 25.2 60.343 25.3493 60.343 25.536C60.343 25.76 60.2683 25.9327 60.119 26.054C59.9697 26.1753 59.8203 26.236 59.671 26.236C59.4843 26.236 59.3443 26.1847 59.251 26.082C59.1577 25.97 59.111 25.8253 59.111 25.648ZM65.7799 28.546C65.6119 28.5087 65.4579 28.4807 65.3179 28.462C65.1779 28.4433 65.0332 28.434 64.8839 28.434C64.3052 28.434 63.7919 28.546 63.3439 28.77C62.8959 28.994 62.5179 29.288 62.2099 29.652C61.9019 30.016 61.6639 30.4313 61.4959 30.898C61.3372 31.3647 61.2579 31.8407 61.2579 32.326C61.2579 32.7087 61.2952 33.0307 61.3699 33.292C61.4446 33.544 61.5472 33.7493 61.6779 33.908C61.8086 34.0573 61.9579 34.1693 62.1259 34.244C62.3032 34.3093 62.4899 34.342 62.6859 34.342C63.0686 34.342 63.4279 34.2533 63.7639 34.076C64.0999 33.8893 64.4172 33.628 64.7159 33.292C64.7159 33.04 64.7532 32.7507 64.8279 32.424C64.9026 32.0973 64.9726 31.8033 65.0379 31.542L65.7799 28.546ZM64.9679 35.084C64.9119 34.972 64.8606 34.846 64.8139 34.706C64.7766 34.5567 64.7486 34.4073 64.7299 34.258C64.4032 34.5753 64.0579 34.8087 63.6939 34.958C63.3392 35.1073 62.9706 35.182 62.5879 35.182C62.2892 35.182 62.0046 35.1307 61.7339 35.028C61.4632 34.9253 61.2252 34.7667 61.0199 34.552C60.8146 34.3373 60.6466 34.062 60.5159 33.726C60.3946 33.3807 60.3339 32.9747 60.3339 32.508C60.3339 31.7613 60.4552 31.0847 60.6979 30.478C60.9406 29.8713 61.2766 29.358 61.7059 28.938C62.1446 28.5087 62.6579 28.1773 63.2459 27.944C63.8432 27.7107 64.4919 27.594 65.1919 27.594C65.7706 27.594 66.3259 27.692 66.8579 27.888L65.7799 32.242C65.7239 32.4753 65.6772 32.6947 65.6399 32.9C65.6026 33.1053 65.5839 33.3013 65.5839 33.488C65.5839 33.74 65.6072 33.978 65.6539 34.202C65.7006 34.426 65.7846 34.6733 65.9059 34.944L64.9679 35.084ZM67.0679 25.046L64.6179 26.838L64.2119 26.222L66.5359 24.178L67.0679 25.046ZM70.5943 33.852C70.9396 34.0387 71.2429 34.1647 71.5043 34.23C71.7656 34.2953 72.0596 34.328 72.3863 34.328C72.6196 34.328 72.8436 34.3047 73.0583 34.258C73.2729 34.202 73.4596 34.1227 73.6183 34.02C73.7769 33.9173 73.9029 33.782 73.9963 33.614C74.0896 33.446 74.1363 33.25 74.1363 33.026C74.1363 32.7833 74.0663 32.5827 73.9263 32.424C73.7956 32.2653 73.6276 32.13 73.4223 32.018C73.2263 31.8967 73.0116 31.78 72.7783 31.668C72.5449 31.556 72.3256 31.4253 72.1203 31.276C71.9243 31.1267 71.7563 30.94 71.6163 30.716C71.4856 30.492 71.4203 30.2027 71.4203 29.848C71.4203 29.4467 71.4949 29.106 71.6443 28.826C71.7936 28.5367 71.9943 28.3033 72.2463 28.126C72.4983 27.9393 72.7876 27.804 73.1143 27.72C73.4409 27.636 73.7769 27.594 74.1223 27.594C74.4209 27.594 74.7149 27.622 75.0043 27.678C75.3029 27.7247 75.5876 27.7993 75.8583 27.902L75.4943 28.714C75.2983 28.63 75.0743 28.5647 74.8223 28.518C74.5703 28.462 74.3089 28.434 74.0383 28.434C73.8143 28.434 73.5949 28.4573 73.3803 28.504C73.1749 28.5507 72.9929 28.63 72.8343 28.742C72.6756 28.8447 72.5449 28.98 72.4423 29.148C72.3489 29.3067 72.3023 29.5027 72.3023 29.736C72.3023 29.9787 72.3676 30.1793 72.4983 30.338C72.6383 30.4967 72.8063 30.6367 73.0023 30.758C73.1983 30.8793 73.4129 30.996 73.6463 31.108C73.8889 31.2107 74.1083 31.3367 74.3043 31.486C74.5003 31.6353 74.6636 31.8173 74.7943 32.032C74.9343 32.2373 75.0043 32.5033 75.0043 32.83C75.0043 33.2407 74.9249 33.5953 74.7663 33.894C74.6169 34.1927 74.4163 34.4353 74.1643 34.622C73.9123 34.8087 73.6229 34.944 73.2963 35.028C72.9696 35.1213 72.6336 35.168 72.2883 35.168C71.9243 35.168 71.5603 35.126 71.1963 35.042C70.8323 34.9673 70.5009 34.846 70.2023 34.678L70.5943 33.852ZM82.6957 29.456C82.6957 29.9787 82.5651 30.4033 82.3037 30.73C82.0517 31.0567 81.6924 31.318 81.2257 31.514C80.7684 31.7007 80.2131 31.836 79.5597 31.92C78.9157 32.004 78.1971 32.0647 77.4037 32.102V32.396C77.4037 32.6667 77.4317 32.9187 77.4877 33.152C77.5437 33.3853 77.6464 33.5907 77.7957 33.768C77.9451 33.936 78.1504 34.0713 78.4117 34.174C78.6824 34.2767 79.0277 34.328 79.4477 34.328C79.7744 34.328 80.1011 34.2813 80.4277 34.188C80.7637 34.0947 81.0811 33.9547 81.3797 33.768L81.4777 34.608C81.1604 34.7853 80.8104 34.9207 80.4277 35.014C80.0451 35.1167 79.6577 35.168 79.2657 35.168C78.7524 35.168 78.3184 35.1027 77.9637 34.972C77.6184 34.8413 77.3337 34.6593 77.1097 34.426C76.8951 34.1927 76.7411 33.9127 76.6477 33.586C76.5544 33.2593 76.5077 32.9 76.5077 32.508C76.5077 31.9107 76.5964 31.318 76.7737 30.73C76.9604 30.142 77.2311 29.6147 77.5857 29.148C77.9404 28.6813 78.3744 28.308 78.8877 28.028C79.4104 27.7387 80.0031 27.594 80.6657 27.594C81.3191 27.594 81.8184 27.7667 82.1637 28.112C82.5184 28.448 82.6957 28.896 82.6957 29.456ZM80.5817 28.42C80.2084 28.42 79.8584 28.4993 79.5317 28.658C79.2051 28.8073 78.9111 29.0127 78.6497 29.274C78.3884 29.5353 78.1597 29.8387 77.9637 30.184C77.7771 30.5293 77.6371 30.8933 77.5437 31.276C78.3371 31.2573 79.0044 31.206 79.5457 31.122C80.0871 31.038 80.5211 30.9213 80.8477 30.772C81.1837 30.6227 81.4217 30.4453 81.5617 30.24C81.7017 30.0253 81.7717 29.7827 81.7717 29.512C81.7717 29.148 81.6597 28.8773 81.4357 28.7C81.2211 28.5133 80.9364 28.42 80.5817 28.42ZM85.4437 35.168C85.0423 35.168 84.7063 35.1167 84.4357 35.014C84.165 34.9113 83.9503 34.7713 83.7917 34.594C83.633 34.4073 83.5163 34.1927 83.4417 33.95C83.3763 33.698 83.3437 33.4273 83.3437 33.138C83.3437 32.8673 83.367 32.5827 83.4137 32.284C83.4603 31.976 83.521 31.668 83.5957 31.36L84.4637 27.762H85.3737L84.6037 30.954C84.529 31.2807 84.445 31.626 84.3517 31.99C84.2677 32.3447 84.2257 32.6853 84.2257 33.012C84.2257 33.1987 84.2443 33.3713 84.2817 33.53C84.3283 33.6887 84.403 33.8287 84.5057 33.95C84.6083 34.0713 84.7437 34.1647 84.9117 34.23C85.0797 34.2953 85.2943 34.328 85.5557 34.328C86.0037 34.328 86.3957 34.2393 86.7317 34.062C87.077 33.8847 87.399 33.628 87.6977 33.292C87.6977 33.04 87.735 32.7507 87.8097 32.424C87.8843 32.0973 87.9543 31.8033 88.0197 31.542L88.9577 27.762H89.8677L88.7617 32.242C88.7057 32.4753 88.659 32.6947 88.6217 32.9C88.5843 33.1053 88.5657 33.3013 88.5657 33.488C88.5657 33.74 88.589 33.978 88.6357 34.202C88.6823 34.426 88.7663 34.6733 88.8877 34.944L87.9497 35.084C87.8937 34.972 87.8423 34.846 87.7957 34.706C87.7583 34.5567 87.7303 34.4073 87.7117 34.258C87.385 34.5753 87.035 34.8087 86.6617 34.958C86.2977 35.098 85.8917 35.168 85.4437 35.168ZM23.4142 50.16C23.7035 50.244 23.9975 50.286 24.2962 50.286C24.8748 50.286 25.3882 50.174 25.8362 49.95C26.2842 49.7167 26.6622 49.418 26.9702 49.054C27.2782 48.6807 27.5115 48.2653 27.6702 47.808C27.8288 47.3413 27.9082 46.87 27.9082 46.394C27.9082 45.694 27.7542 45.1853 27.4462 44.868C27.1382 44.5413 26.6762 44.378 26.0602 44.378C25.8455 44.378 25.6262 44.3967 25.4022 44.434C25.1875 44.4713 24.9635 44.5227 24.7302 44.588L23.4142 50.16ZM23.9462 44.056C24.3382 43.916 24.7302 43.804 25.1222 43.72C25.5142 43.636 25.9015 43.594 26.2842 43.594C27.9828 43.594 28.8322 44.4807 28.8322 46.254C28.8322 46.8793 28.7295 47.486 28.5242 48.074C28.3188 48.662 28.0155 49.1847 27.6142 49.642C27.2222 50.09 26.7368 50.4493 26.1582 50.72C25.5888 50.9907 24.9355 51.126 24.1982 51.126C23.8342 51.126 23.4982 51.084 23.1902 51L22.5742 53.59H21.6502L23.9462 44.056ZM35.9379 45.456C35.9379 45.9787 35.8073 46.4033 35.5459 46.73C35.2939 47.0567 34.9346 47.318 34.4679 47.514C34.0106 47.7007 33.4553 47.836 32.8019 47.92C32.1579 48.004 31.4393 48.0647 30.6459 48.102V48.396C30.6459 48.6667 30.6739 48.9187 30.7299 49.152C30.7859 49.3853 30.8886 49.5907 31.0379 49.768C31.1873 49.936 31.3926 50.0713 31.6539 50.174C31.9246 50.2767 32.2699 50.328 32.6899 50.328C33.0166 50.328 33.3433 50.2813 33.6699 50.188C34.0059 50.0947 34.3233 49.9547 34.6219 49.768L34.7199 50.608C34.4026 50.7853 34.0526 50.9207 33.6699 51.014C33.2873 51.1167 32.8999 51.168 32.5079 51.168C31.9946 51.168 31.5606 51.1027 31.2059 50.972C30.8606 50.8413 30.5759 50.6593 30.3519 50.426C30.1373 50.1927 29.9833 49.9127 29.8899 49.586C29.7966 49.2593 29.7499 48.9 29.7499 48.508C29.7499 47.9107 29.8386 47.318 30.0159 46.73C30.2026 46.142 30.4733 45.6147 30.8279 45.148C31.1826 44.6813 31.6166 44.308 32.1299 44.028C32.6526 43.7387 33.2453 43.594 33.9079 43.594C34.5613 43.594 35.0606 43.7667 35.4059 44.112C35.7606 44.448 35.9379 44.896 35.9379 45.456ZM33.8239 44.42C33.4506 44.42 33.1006 44.4993 32.7739 44.658C32.4473 44.8073 32.1533 45.0127 31.8919 45.274C31.6306 45.5353 31.4019 45.8387 31.2059 46.184C31.0193 46.5293 30.8793 46.8933 30.7859 47.276C31.5793 47.2573 32.2466 47.206 32.7879 47.122C33.3293 47.038 33.7633 46.9213 34.0899 46.772C34.4259 46.6227 34.6639 46.4453 34.8039 46.24C34.9439 46.0253 35.0139 45.7827 35.0139 45.512C35.0139 45.148 34.9019 44.8773 34.6779 44.7C34.4633 44.5133 34.1786 44.42 33.8239 44.42ZM42.1159 44.504C41.9852 44.4853 41.8405 44.4713 41.6819 44.462C41.5232 44.4433 41.3785 44.434 41.2479 44.434C40.5945 44.434 40.0299 44.5553 39.5539 44.798C39.0872 45.0313 38.6999 45.3393 38.3919 45.722C38.0932 46.0953 37.8692 46.5153 37.7199 46.982C37.5799 47.4393 37.5099 47.892 37.5099 48.34C37.5099 48.62 37.5332 48.8813 37.5799 49.124C37.6359 49.3573 37.7199 49.5673 37.8319 49.754C37.9439 49.9313 38.0885 50.0713 38.2659 50.174C38.4432 50.2767 38.6579 50.328 38.9099 50.328C39.1432 50.328 39.3625 50.2953 39.5679 50.23C39.7825 50.1647 39.9785 50.0853 40.1559 49.992C40.3425 49.8893 40.5105 49.7773 40.6599 49.656C40.8092 49.5347 40.9352 49.418 41.0379 49.306C41.0379 49.0633 41.0705 48.7927 41.1359 48.494C41.2012 48.186 41.2759 47.8687 41.3599 47.542L42.1159 44.504ZM41.2899 51.084C41.2432 50.9907 41.1965 50.8693 41.1499 50.72C41.1032 50.5613 41.0705 50.4073 41.0519 50.258C40.9679 50.3513 40.8559 50.454 40.7159 50.566C40.5852 50.6687 40.4265 50.7667 40.2399 50.86C40.0532 50.944 39.8432 51.014 39.6099 51.07C39.3765 51.1353 39.1199 51.168 38.8399 51.168C38.4385 51.168 38.0932 51.098 37.8039 50.958C37.5239 50.8087 37.2905 50.6127 37.1039 50.37C36.9265 50.1273 36.7959 49.8427 36.7119 49.516C36.6279 49.18 36.5859 48.83 36.5859 48.466C36.5859 47.878 36.6792 47.2947 36.8659 46.716C37.0619 46.1373 37.3559 45.6193 37.7479 45.162C38.1492 44.6953 38.6532 44.3173 39.2599 44.028C39.8665 43.7387 40.5805 43.594 41.4019 43.594C41.7005 43.594 42.0039 43.622 42.3119 43.678L43.1099 40.304L44.0619 40.136L42.0459 48.494C41.9992 48.662 41.9619 48.8253 41.9339 48.984C41.9152 49.1427 41.9059 49.2967 41.9059 49.446C41.9059 49.7167 41.9292 49.9733 41.9759 50.216C42.0225 50.4587 42.1065 50.7013 42.2279 50.944L41.2899 51.084ZM45.6864 43.762H46.5964L44.8464 51H43.9364L45.6864 43.762ZM46.0504 41.648C46.0504 41.4053 46.1157 41.2233 46.2464 41.102C46.3864 40.9713 46.5357 40.906 46.6944 40.906C46.8811 40.906 47.0257 40.9667 47.1284 41.088C47.2311 41.2 47.2824 41.3493 47.2824 41.536C47.2824 41.76 47.2077 41.9327 47.0584 42.054C46.9091 42.1753 46.7597 42.236 46.6104 42.236C46.4237 42.236 46.2837 42.1847 46.1904 42.082C46.0971 41.97 46.0504 41.8253 46.0504 41.648ZM52.9713 44.504C52.8407 44.4853 52.696 44.4713 52.5373 44.462C52.3787 44.4433 52.234 44.434 52.1033 44.434C51.45 44.434 50.8853 44.5553 50.4093 44.798C49.9427 45.0313 49.5553 45.3393 49.2473 45.722C48.9487 46.0953 48.7247 46.5153 48.5753 46.982C48.4353 47.4393 48.3653 47.892 48.3653 48.34C48.3653 48.62 48.3887 48.8813 48.4353 49.124C48.4913 49.3573 48.5753 49.5673 48.6873 49.754C48.7993 49.9313 48.944 50.0713 49.1213 50.174C49.2987 50.2767 49.5133 50.328 49.7653 50.328C49.9987 50.328 50.218 50.2953 50.4233 50.23C50.638 50.1647 50.834 50.0853 51.0113 49.992C51.198 49.8893 51.366 49.7773 51.5153 49.656C51.6647 49.5347 51.7907 49.418 51.8933 49.306C51.8933 49.0633 51.926 48.7927 51.9913 48.494C52.0567 48.186 52.1313 47.8687 52.2153 47.542L52.9713 44.504ZM52.1453 51.084C52.0987 50.9907 52.052 50.8693 52.0053 50.72C51.9587 50.5613 51.926 50.4073 51.9073 50.258C51.8233 50.3513 51.7113 50.454 51.5713 50.566C51.4407 50.6687 51.282 50.7667 51.0953 50.86C50.9087 50.944 50.6987 51.014 50.4653 51.07C50.232 51.1353 49.9753 51.168 49.6953 51.168C49.294 51.168 48.9487 51.098 48.6593 50.958C48.3793 50.8087 48.146 50.6127 47.9593 50.37C47.782 50.1273 47.6513 49.8427 47.5673 49.516C47.4833 49.18 47.4413 48.83 47.4413 48.466C47.4413 47.878 47.5347 47.2947 47.7213 46.716C47.9173 46.1373 48.2113 45.6193 48.6033 45.162C49.0047 44.6953 49.5087 44.3173 50.1153 44.028C50.722 43.7387 51.436 43.594 52.2573 43.594C52.556 43.594 52.8593 43.622 53.1673 43.678L53.9653 40.304L54.9173 40.136L52.9013 48.494C52.8547 48.662 52.8173 48.8253 52.7893 48.984C52.7707 49.1427 52.7613 49.2967 52.7613 49.446C52.7613 49.7167 52.7847 49.9733 52.8313 50.216C52.878 50.4587 52.962 50.7013 53.0833 50.944L52.1453 51.084ZM55.9259 48.676C55.9259 49.2267 56.0799 49.642 56.3879 49.922C56.6959 50.202 57.0645 50.342 57.4939 50.342C57.8299 50.342 58.1752 50.258 58.5299 50.09C58.8845 49.9127 59.2065 49.6513 59.4959 49.306C59.7945 48.9513 60.0372 48.508 60.2239 47.976C60.4199 47.444 60.5179 46.8187 60.5179 46.1C60.5179 45.5493 60.3639 45.134 60.0559 44.854C59.7479 44.574 59.3792 44.434 58.9499 44.434C58.6139 44.434 58.2685 44.5227 57.9139 44.7C57.5592 44.868 57.2325 45.1293 56.9339 45.484C56.6445 45.8293 56.4019 46.268 56.2059 46.8C56.0192 47.332 55.9259 47.9573 55.9259 48.676ZM61.4419 46.03C61.4419 46.9073 61.3159 47.668 61.0639 48.312C60.8212 48.956 60.5039 49.4927 60.1119 49.922C59.7292 50.342 59.2999 50.6547 58.8239 50.86C58.3572 51.0653 57.8952 51.168 57.4379 51.168C57.1112 51.168 56.7985 51.1167 56.4999 51.014C56.2105 50.9113 55.9539 50.7573 55.7299 50.552C55.5059 50.3467 55.3285 50.0947 55.1979 49.796C55.0672 49.488 55.0019 49.1333 55.0019 48.732C55.0019 47.8547 55.1232 47.094 55.3659 46.45C55.6179 45.806 55.9352 45.274 56.3179 44.854C56.7099 44.434 57.1392 44.1213 57.6059 43.916C58.0819 43.7107 58.5485 43.608 59.0059 43.608C59.3325 43.608 59.6405 43.6593 59.9299 43.762C60.2285 43.8647 60.4899 44.0187 60.7139 44.224C60.9379 44.4293 61.1152 44.686 61.2459 44.994C61.3765 45.2927 61.4419 45.638 61.4419 46.03ZM71.0709 44.546C70.9029 44.5087 70.7489 44.4807 70.6089 44.462C70.4689 44.4433 70.3243 44.434 70.1749 44.434C69.5963 44.434 69.0829 44.546 68.6349 44.77C68.1869 44.994 67.8089 45.288 67.5009 45.652C67.1929 46.016 66.9549 46.4313 66.7869 46.898C66.6283 47.3647 66.5489 47.8407 66.5489 48.326C66.5489 48.7087 66.5863 49.0307 66.6609 49.292C66.7356 49.544 66.8383 49.7493 66.9689 49.908C67.0996 50.0573 67.2489 50.1693 67.4169 50.244C67.5943 50.3093 67.7809 50.342 67.9769 50.342C68.3596 50.342 68.7189 50.2533 69.0549 50.076C69.3909 49.8893 69.7083 49.628 70.0069 49.292C70.0069 49.04 70.0443 48.7507 70.1189 48.424C70.1936 48.0973 70.2636 47.8033 70.3289 47.542L71.0709 44.546ZM70.2589 51.084C70.2029 50.972 70.1516 50.846 70.1049 50.706C70.0676 50.5567 70.0396 50.4073 70.0209 50.258C69.6943 50.5753 69.3489 50.8087 68.9849 50.958C68.6303 51.1073 68.2616 51.182 67.8789 51.182C67.5803 51.182 67.2956 51.1307 67.0249 51.028C66.7543 50.9253 66.5163 50.7667 66.3109 50.552C66.1056 50.3373 65.9376 50.062 65.8069 49.726C65.6856 49.3807 65.6249 48.9747 65.6249 48.508C65.6249 47.7613 65.7463 47.0847 65.9889 46.478C66.2316 45.8713 66.5676 45.358 66.9969 44.938C67.4356 44.5087 67.9489 44.1773 68.5369 43.944C69.1343 43.7107 69.7829 43.594 70.4829 43.594C71.0616 43.594 71.6169 43.692 72.1489 43.888L71.0709 48.242C71.0149 48.4753 70.9683 48.6947 70.9309 48.9C70.8936 49.1053 70.8749 49.3013 70.8749 49.488C70.8749 49.74 70.8983 49.978 70.9449 50.202C70.9916 50.426 71.0756 50.6733 71.1969 50.944L70.2589 51.084ZM78.5114 44.518C78.4087 44.4993 78.2967 44.476 78.1754 44.448C78.0634 44.42 77.9607 44.406 77.8674 44.406C77.2607 44.406 76.71 44.5087 76.2154 44.714C75.73 44.91 75.31 45.1853 74.9554 45.54C74.61 45.8947 74.3394 46.3193 74.1434 46.814C73.9567 47.2993 73.8634 47.8313 73.8634 48.41C73.8634 48.606 73.882 48.8207 73.9194 49.054C73.9567 49.278 74.0314 49.488 74.1434 49.684C74.2554 49.88 74.414 50.0433 74.6194 50.174C74.834 50.3047 75.114 50.37 75.4594 50.37C75.786 50.37 76.108 50.314 76.4254 50.202C76.7427 50.0807 77.018 49.9267 77.2514 49.74L78.5114 44.518ZM76.9994 50.776C76.7847 50.8973 76.5234 50.9907 76.2154 51.056C75.9167 51.1307 75.5994 51.168 75.2634 51.168C74.8434 51.168 74.484 51.098 74.1854 50.958C73.896 50.8087 73.658 50.6127 73.4714 50.37C73.2847 50.1273 73.1494 49.8473 73.0654 49.53C72.9814 49.2127 72.9394 48.8813 72.9394 48.536C72.9394 47.948 73.0327 47.36 73.2194 46.772C73.4154 46.1747 73.7187 45.6427 74.1294 45.176C74.5494 44.7093 75.086 44.3313 75.7394 44.042C76.402 43.7433 77.2047 43.594 78.1474 43.594C78.3247 43.594 78.5534 43.622 78.8334 43.678C79.1227 43.734 79.3654 43.8273 79.5614 43.958L77.2374 53.59H76.3274L76.9994 50.776ZM82.5863 51.168C82.1849 51.168 81.8489 51.1167 81.5783 51.014C81.3076 50.9113 81.0929 50.7713 80.9343 50.594C80.7756 50.4073 80.6589 50.1927 80.5843 49.95C80.5189 49.698 80.4863 49.4273 80.4863 49.138C80.4863 48.8673 80.5096 48.5827 80.5563 48.284C80.6029 47.976 80.6636 47.668 80.7383 47.36L81.6063 43.762H82.5163L81.7463 46.954C81.6716 47.2807 81.5876 47.626 81.4943 47.99C81.4103 48.3447 81.3683 48.6853 81.3683 49.012C81.3683 49.1987 81.3869 49.3713 81.4243 49.53C81.4709 49.6887 81.5456 49.8287 81.6483 49.95C81.7509 50.0713 81.8863 50.1647 82.0543 50.23C82.2223 50.2953 82.4369 50.328 82.6983 50.328C83.1463 50.328 83.5383 50.2393 83.8743 50.062C84.2196 49.8847 84.5416 49.628 84.8403 49.292C84.8403 49.04 84.8776 48.7507 84.9523 48.424C85.0269 48.0973 85.0969 47.8033 85.1623 47.542L86.1003 43.762H87.0103L85.9043 48.242C85.8483 48.4753 85.8016 48.6947 85.7643 48.9C85.7269 49.1053 85.7083 49.3013 85.7083 49.488C85.7083 49.74 85.7316 49.978 85.7783 50.202C85.8249 50.426 85.9089 50.6733 86.0303 50.944L85.0923 51.084C85.0363 50.972 84.9849 50.846 84.9383 50.706C84.9009 50.5567 84.8729 50.4073 84.8543 50.258C84.5276 50.5753 84.1776 50.8087 83.8043 50.958C83.4403 51.098 83.0343 51.168 82.5863 51.168ZM89.3407 43.762H90.2507L88.5007 51H87.5907L89.3407 43.762ZM89.7047 41.648C89.7047 41.4053 89.77 41.2233 89.9007 41.102C90.0407 40.9713 90.19 40.906 90.3487 40.906C90.5354 40.906 90.68 40.9667 90.7827 41.088C90.8854 41.2 90.9367 41.3493 90.9367 41.536C90.9367 41.76 90.862 41.9327 90.7127 42.054C90.5634 42.1753 90.414 42.236 90.2647 42.236C90.078 42.236 89.938 42.1847 89.8447 42.082C89.7514 41.97 89.7047 41.8253 89.7047 41.648ZM91.7816 48.018C91.8563 47.402 91.945 46.7767 92.0476 46.142C92.1503 45.5073 92.295 44.7933 92.4816 44L93.1256 41.298H94.1056L93.4616 44.014C93.4243 44.1727 93.359 44.4247 93.2656 44.77C93.1723 45.1153 93.065 45.4887 92.9436 45.89C92.8316 46.2913 92.715 46.688 92.5936 47.08C92.4816 47.472 92.379 47.7847 92.2856 48.018H91.7816ZM91.4456 51.168C91.203 51.168 91.0256 51.1027 90.9136 50.972C90.8016 50.832 90.7456 50.6733 90.7456 50.496C90.7456 50.2907 90.8156 50.0993 90.9556 49.922C91.0956 49.7353 91.2916 49.642 91.5436 49.642C91.7863 49.642 91.9636 49.712 92.0756 49.852C92.1876 49.9827 92.2436 50.1367 92.2436 50.314C92.2436 50.5193 92.1736 50.7153 92.0336 50.902C91.8936 51.0793 91.6976 51.168 91.4456 51.168Z" fill="white"/>
<path d="M63 65H62C62 64.337 61.7366 63.7011 61.2678 63.2322C60.7989 62.7634 60.163 62.5 59.5 62.5C58.837 62.5 58.2011 62.7634 57.7322 63.2322C57.2634 63.7011 57 64.337 57 65H56C56 64.0717 56.3687 63.1815 57.0251 62.5251C57.6815 61.8687 58.5717 61.5 59.5 61.5C60.4283 61.5 61.3185 61.8687 61.9749 62.5251C62.6313 63.1815 63 64.0717 63 65Z" fill="white"/>
<path d="M65.5 68.5C65.2417 68.5009 64.9882 68.5699 64.765 68.7C64.6302 68.4862 64.4435 68.3099 64.2224 68.1875C64.0012 68.0652 63.7527 68.0007 63.5 68C63.2417 68.0009 62.9882 68.0699 62.765 68.2C62.5831 67.9138 62.3095 67.6976 61.989 67.5868C61.6684 67.4761 61.3198 67.4772 61 67.59V65C61 64.6022 60.8419 64.2206 60.5606 63.9393C60.2793 63.658 59.8978 63.5 59.5 63.5C59.1022 63.5 58.7206 63.658 58.4393 63.9393C58.158 64.2206 58 64.6022 58 65V70.55L56.885 69.79C56.6294 69.5996 56.3187 69.4978 56 69.5C55.7025 69.4993 55.4115 69.587 55.164 69.7521C54.9164 69.9172 54.7236 70.1521 54.61 70.4271C54.4964 70.7021 54.4671 71.0046 54.5258 71.2963C54.5846 71.5879 54.7287 71.8555 54.94 72.065L58.94 75.715C59.5063 76.2219 60.24 76.5015 61 76.5H63.5C64.4282 76.5 65.3185 76.1313 65.9749 75.4749C66.6312 74.8185 67 73.9283 67 73V70C67 69.6022 66.8419 69.2206 66.5606 68.9393C66.2793 68.658 65.8978 68.5 65.5 68.5ZM66 73C66 73.663 65.7366 74.2989 65.2677 74.7678C64.7989 75.2366 64.163 75.5 63.5 75.5H61C60.4946 75.5061 60.0042 75.3284 59.62 75L55.645 71.35C55.5526 71.2569 55.5005 71.1312 55.5 71C55.5 70.9071 55.5258 70.8161 55.5747 70.7371C55.6235 70.6581 55.6933 70.5943 55.7764 70.5528C55.8594 70.5113 55.9524 70.4937 56.0449 70.502C56.1374 70.5104 56.2257 70.5443 56.3 70.6L59 72.45V65C59 64.8674 59.0527 64.7402 59.1464 64.6464C59.2402 64.5527 59.3674 64.5 59.5 64.5C59.6326 64.5 59.7598 64.5527 59.8535 64.6464C59.9473 64.7402 60 64.8674 60 65V70.5H61V69C61 68.8674 61.0527 68.7402 61.1464 68.6464C61.2402 68.5527 61.3674 68.5 61.5 68.5C61.6326 68.5 61.7598 68.5527 61.8535 68.6464C61.9473 68.7402 62 68.8674 62 69V70.5H63V69.5C63 69.3674 63.0527 69.2402 63.1464 69.1464C63.2402 69.0527 63.3674 69 63.5 69C63.6326 69 63.7598 69.0527 63.8535 69.1464C63.9473 69.2402 64 69.3674 64 69.5V70.5H65V70C65 69.8674 65.0527 69.7402 65.1464 69.6464C65.2402 69.5527 65.3674 69.5 65.5 69.5C65.6326 69.5 65.7598 69.5527 65.8535 69.6464C65.9473 69.7402 66 69.8674 66 70V73Z" fill="white"/>
</svg>
