<svg width="80" height="80" viewBox="0 0 80 80" fill="none" xmlns="http://www.w3.org/2000/svg">
<path d="M40 53.3333C39.2212 53.3348 38.4664 53.0635 37.8667 52.5666L17.8667 35.8999C17.1859 35.3341 16.7579 34.5211 16.6766 33.6397C16.5953 32.7583 16.8675 31.8807 17.4333 31.1999C17.9991 30.5192 18.8122 30.0911 19.6936 30.0099C20.575 29.9286 21.4526 30.2008 22.1333 30.7666L40 45.6999L57.8667 31.2999C58.2076 31.023 58.5999 30.8163 59.0211 30.6915C59.4422 30.5667 59.8838 30.5264 60.3206 30.5729C60.7574 30.6193 61.1806 30.7517 61.5661 30.9622C61.9515 31.1728 62.2916 31.4575 62.5667 31.7999C62.8719 32.1427 63.1031 32.5448 63.2458 32.981C63.3884 33.4172 63.4394 33.8783 63.3956 34.3351C63.3518 34.792 63.2141 35.2349 62.9912 35.6361C62.7682 36.0373 62.4648 36.3881 62.1 36.6666L42.1 52.7666C41.4831 53.185 40.7437 53.3845 40 53.3333Z" fill="white"/>
</svg>
